<?xml version="1.0" encoding="UTF-8"?>
<svg id="Capa_2" data-name="Capa 2" xmlns="http://www.w3.org/2000/svg" viewBox="0 0 618.41 618.41">
  <defs>
    <style>
      .cls-1 {
        font-family: Eigerdals-HeaIta, Eigerdals;
        font-size: 12px;
        font-style: italic;
      }

      .cls-2 {
        fill: #fff;
      }

      .cls-3 {
        fill: #29a9ff;
      }
    </style>
  </defs>
  <g id="Capa_1-2" data-name="Capa 1">
    <text class="cls-1" transform="translate(300.32 312.81)"><tspan x="0" y="0">Lo</tspan></text>
    <path class="cls-3" d="M122.87,0h372.67c67.82,0,122.87,55.06,122.87,122.87v372.67c0,67.82-55.06,122.87-122.87,122.87H0V122.87C0,55.06,55.06,0,122.87,0Z"/>
    <g>
      <path class="cls-2" d="M210.06,252.75c81.61,0,99.62,38.6,88.6,90.8-11.03,52.94-45.95,91.54-127.56,91.54-9.56,0-19.12,0-27.94-.73l-10.29,48.52c-8.09,37.5-10.66,38.23-45.22,38.23-25.37,0-27.2-2.21-19.48-38.23l43.01-203.66c5.15-22.79,56.24-26.47,98.89-26.47ZM154.92,378.85c9.19,1.47,19.85,2.21,31.98,2.21,26.47,0,36.76-18.38,40.81-37.5,4.04-18.75,1.84-37.13-24.63-37.13-12.13,0-23.53.74-33.45,2.57l-14.7,69.85Z"/>
      <path class="cls-2" d="M323.85,400.7l29.8-139.69c-4.66,0-8.38.47-11.64.47-15.83.47-22.35,0-20.49-20.49l2.33-29.34c1.4-12.11,7.45-19.09,21.42-20.95,6.05-.93,14.43-1.4,23.75-1.86l2.33-10.24c14.9-71.24,52.15-104.3,122.93-104.3,13.97,0,31.2,2.33,47.03,7.92,15.37,5.59,15.37,9.31,8.85,24.68l-11.64,30.73c-7.45,18.16-12.57,20.49-27.47,16.3-10.24-2.33-18.16-2.79-25.14-2.79-23.28,0-28.87,13.97-31.2,24.68l-2.79,12.11c18.16.47,34.46,1.4,45.17,2.79,13.04,1.86,16.3,8.85,12.11,20.95l-9.78,29.34c-6.98,20.49-13.5,20.95-28.87,20.49-8.38-.47-20.49-.93-33.99-.93l-29.8,140.16c-26.07,122-69.38,143.42-118.74,143.42-18.16,0-38.18-5.59-50.29-11.18-9.31-5.59-13.97-11.18-6.05-25.61l13.5-23.75c6.99-14.9,15.37-17.23,23.28-14.9,4.66,1.86,8.38,3.73,13.97,3.73,22.35,0,30.73-21.88,41.44-71.71Z"/>
    </g>
  </g>
</svg>